#!OML:ASF I:\Actors\actors\Patient Classification 2\Patient 1\Session 1\actor1.ASF
:FULLY-SPECIFIED
:DEGREES
653
root -0.696313 18.7326 5.67966 4.67238 0.714518 -0.706303
lowerback 4.00301 1.04223 0.135438
upperback 2.01281 1.39553 0.579643
thorax -0.190227 0.695776 0.460787
lowerneck -17.9298 -3.96588 -1.03668
upperneck 15.0009 -6.08844 5.02134
head 7.77398 -2.46118 1.10573
rclavicle 4.37326e-015 2.48481e-015
rhumerus -97.8106 -2.8434 -104.729
rradius 90.6863
rwrist -54.3491
rhand 3.80782 -56.3205
rfingers 7.12502
rthumb 29.2322 635.956
lclavicle 4.37326e-015 2.48481e-015
lhumerus -71.5815 -19.2911 104.277
lradius 109.437
lwrist 34.557
lhand -14.1172 -22.3949
lfingers 7.12502
lthumb 12.0161 7.24011
rfemur 0 0 0
rtibia 0
rfoot 0 0
rtoes 0
lfemur -7.57493 -8.33208 -13.1919
ltibia 20.8236
lfoot -23.1713 15.437
ltoes -54.772
654
root -0.698356 18.7342 5.67376 4.74117 0.886017 -0.687753
lowerback 4.0645 0.969379 0.153578
upperback 1.93828 1.30069 0.690648
thorax -0.30241 0.648154 0.566198
lowerneck -17.8431 -3.91426 -1.12365
upperneck 14.8494 -5.97592 4.96817
head 7.70557 -2.42307 1.11808
rclavicle -6.21202e-016 3.77691e-015
rhumerus -96.124 -3.15795 -104.073
rradius 88.2684
rwrist -54.3448
rhand 6.18929 -58.4777
rfingers 7.12502
rthumb 31.5037 634.218
lclavicle -6.21202e-016 3.77691e-015
lhumerus -71.3195 -19.0259 104.355
lradius 108.942
lwrist 34.3038
lhand -14.1525 -22.3265
lfingers 7.12502
lthumb 11.9821 7.31058
rfemur 0 0 0
rtibia 0
rfoot 0 0
rtoes 0
lfemur -7.69951 -8.33871 -13.1695
ltibia 20.7844
lfoot -23.0258 15.41
ltoes -54.9155
655
root -0.702621 18.7349 5.66517 4.73664 1.07906 -0.63905
lowerback 4.23761 0.901256 0.114834
upperback 1.86498 1.21114 0.828631
thorax -0.477092 0.602928 0.729352
lowerneck -17.8977 -3.90075 -1.19748
upperneck 14.8777 -5.89361 4.72709
head 7.71488 -2.41044 1.05967
rclavicle 1.19768e-014 5.96354e-016
rhumerus -94.5422 -3.49799 -103.484
rradius 86.4433
rwrist -54.6396
rhand 4.65315 -57.0894
rfingers 7.12502
rthumb 30.0391 635.33
lclavicle 1.19768e-014 5.96354e-016
lhumerus -71.0782 -18.7896 104.485
lradius 108.508
lwrist 34.2513
lhand -14.1382 -22.1901
lfingers 7.12502
lthumb 11.9959 7.44613
rfemur 0 0 0
rtibia 0
rfoot 0 0
rtoes 0
lfemur -7.75824 -8.33275 -13.1768
ltibia 20.7316
lfoot -22.8624 15.3092
ltoes -55.0268
656
root -0.707684 18.7338 5.6581 4.69641 1.22438 -0.538543
lowerback 4.39982 0.834969 -0.0296352
upperback 1.7926 1.11986 0.959394
thorax -0.64602 0.556735 0.945353
lowerneck -17.8368 -3.86222 -1.18994
upperneck 14.858 -5.77704 4.38797
head 7.68185 -2.38956 0.96215
rclavicle 5.76476e-015 2.18663e-015
rhumerus -93.1376 -3.82007 -103.132
rradius 85.2553
rwrist -54.6308
rhand 4.73787 -59.2091
rfingers 7.12502
rthumb 30.1199 633.225
lclavicle 5.76476e-015 2.18663e-015
lhumerus -70.8542 -18.5414 104.624
lradius 108.092
lwrist 34.2731
lhand -14.1675 -22.1044
lfingers 7.12502
lthumb 11.9676 7.53349
rfemur 0 0 0
rtibia 0
rfoot 0 0
rtoes 0
lfemur -7.75051 -8.37109 -13.2543
ltibia 20.6662
lfoot -22.7395 15.2026
ltoes -55.0155
657
root -0.710789 18.7323 5.65299 4.66117 1.29949 -0.439595
lowerback 4.49109 0.775212 -0.169182
upperback 1.71978 1.0367 1.06796
thorax -0.774628 0.515019 1.13714
lowerneck -17.687 -3.81053 -1.15682
upperneck 14.8133 -5.65062 4.05978
head 7.62523 -2.36312 0.866907
rclavicle 4.87022e-015 -7.95139e-016
rhumerus -91.9703 -4.08715 -102.961
rradius 84.62
rwrist -55.1147
rhand 4.23373 -59.0605
rfingers 7.12502
rthumb 29.6388 633.287
lclavicle 4.87022e-015 -7.95139e-016
lhumerus -70.5907 -18.3011 104.739
lradius 107.648
lwrist 34.1873
lhand -14.1927 -22.048
lfingers 7.12502
lthumb 11.9432 7.59128
rfemur 0 0 0
rtibia 0
rfoot 0 0
rtoes 0
lfemur -7.70502 -8.46427 -13.3508
ltibia 20.5874
lfoot -22.7112 15.1997
ltoes -54.9019
658
root -0.711507 18.7308 5.65018 4.58696 1.31922 -0.303549
lowerback 4.55423 0.725187 -0.294155
upperback 1.67981 0.96639 1.15896
thorax -0.852915 0.479821 1.30313
lowerneck -17.5648 -3.76432 -1.22307
upperneck 14.8172 -5.51759 3.77721
head 7.5941 -2.33312 0.802688
rclavicle -9.93923e-016 1.59028e-015
rhumerus -91.0475 -4.30312 -102.521
rradius 83.8263
rwrist -54.7435
rhand 3.98647 -57.1522
rfingers 7.12502
rthumb 29.4028 635.154
lclavicle -9.93923e-016 1.59028e-015
lhumerus -70.3135 -18.0735 104.863
lradius 107.279
lwrist 34.0588
lhand -14.1795 -22.0743
lfingers 7.12502
lthumb 11.956 7.56431
rfemur 0 0 0
rtibia 0
rfoot 0 0
rtoes 0
lfemur -7.59139 -8.56053 -13.5109
ltibia 20.5132
lfoot -22.7379 15.2523
ltoes -54.8159
659
root -0.711843 18.729 5.65056 4.48212 1.33053 -0.162417
lowerback 4.58766 0.669596 -0.397293
upperback 1.66421 0.888884 1.22084
thorax -0.888117 0.441004 1.42814
lowerneck -17.6088 -3.68837 -1.12478
upperneck 14.9802 -5.36369 3.34158
head 7.63482 -2.29361 0.660394
rclavicle -5.11871e-015 -1.19271e-015
rhumerus -90.5333 -4.5533 -102.143
rradius 83.4865
rwrist -55.0781
rhand 4.12571 -56.7288
rfingers 7.12502
rthumb 29.5357 635.601
lclavicle -5.11871e-015 -1.19271e-015
lhumerus -70.1133 -17.8855 104.95
lradius 107.055
lwrist 33.9883
lhand -14.2414 -22.0321
lfingers 7.12502
lthumb 11.8963 7.60993
rfemur 0 0 0
rtibia 0
rfoot 0 0
rtoes 0
lfemur -7.45397 -8.58063 -13.6821
ltibia 20.475
lfoot -22.7155 15.2625
ltoes -54.9075
660
root -0.711219 18.7272 5.65289 4.40659 1.37533 -0.105328
lowerback 4.57707 0.595479 -0.419173
upperback 1.63001 0.7904 1.28945
thorax -0.915762 0.391941 1.51603
lowerneck -17.8864 -3.58487 -0.845471
upperneck 15.3871 -5.20437 2.78849
head 7.78937 -2.24643 0.444932
rclavicle 1.54058e-014 9.93923e-015
rhumerus -90.565 -4.6972 -101.935
rradius 83.6642
rwrist -55.3824
rhand 5.10766 -57.6588
rfingers 7.12502
rthumb 30.4727 634.841
lclavicle 1.54058e-014 9.93923e-015
lhumerus -69.9956 -17.7347 104.992
lradius 106.956
lwrist 34.0088
lhand -14.3311 -21.852
lfingers 7.12502
lthumb 11.8099 7.795
rfemur 0 0 0
rtibia 0
rfoot 0 0
rtoes 0
lfemur -7.3788 -8.53361 -13.7553
ltibia 20.4904
lfoot -22.6705 15.2226
ltoes -55.1183
661
root -0.70756 18.726 5.65798 4.40062 1.41753 -0.212019
lowerback 4.43095 0.508143 -0.26486
upperback 1.60404 0.681998 1.41117
thorax -0.857337 0.337702 1.56126
lowerneck -18.0955 -3.47958 -0.782497
upperneck 15.6635 -5.03296 2.512
head 7.90431 -2.18264 0.358586
rclavicle 1.05356e-014 1.98785e-015
rhumerus -90.9415 -4.61937 -101.785
rradius 84.0995
rwrist -55.5533
rhand 5.5353 -57.3579
rfingers 7.12502
rthumb 30.8804 635.218
lclavicle 1.05356e-014 1.98785e-015
lhumerus -69.8333 -17.5595 105.019
lradius 106.913
lwrist 34.0667
lhand -14.3225 -21.8023
lfingers 7.12502
lthumb 11.8181 7.8442
rfemur 0 0 0
rtibia 0
rfoot 0 0
rtoes 0
lfemur -7.39654 -8.50696 -13.6505
ltibia 20.5641
lfoot -22.6888 15.2072
ltoes -55.2938
662
root -0.701633 18.7261 5.6653 4.44238 1.45482 -0.434072
lowerback 4.14261 0.423511 0.0697212
upperback 1.59587 0.582087 1.51344
thorax -0.699612 0.287767 1.48547
lowerneck -18.0574 -3.39181 -0.865665
upperneck 15.6514 -4.88855 2.50131
head 7.89295 -2.1209 0.386691
rclavicle -7.25564e-015 -1.70955e-014
rhumerus -91.4069 -4.55331 -101.599
rradius 84.5621
rwrist -55.8328
rhand 6.74173 -57.5912
rfingers 7.12502
rthumb 32.0298 635.209
lclavicle -7.25564e-015 -1.70955e-014
lhumerus -69.6825 -17.4458 104.994
lradius 106.913
lwrist 34.1563
lhand -14.1926 -21.8765
lfingers 7.12502
lthumb 11.9434 7.7628
rfemur 0 0 0
rtibia 0
rfoot 0 0
rtoes 0
lfemur -7.47948 -8.55785 -13.4185
ltibia 20.6834
lfoot -22.7808 15.1808
ltoes -55.2076
663
root -0.696145 18.7273 5.67077 4.46528 1.49896 -0.659753
lowerback 3.87458 0.351148 0.44744
upperback 1.56478 0.497711 1.56546
thorax -0.576946 0.246348 1.33223
lowerneck -17.9855 -3.33373 -0.913266
upperneck 15.6726 -4.80115 2.51914
head 7.88775 -2.08106 0.411811
rclavicle -1.98785e-015 7.95139e-015
rhumerus -91.8973 -4.56229 -101.398
rradius 85.0254
rwrist -56.0491
rhand 7.82468 -58.0224
rfingers 7.12502
rthumb 33.0603 634.99
lclavicle -1.98785e-015 7.95139e-015
lhumerus -69.6424 -17.428 104.951
lradius 106.932
lwrist 34.2503
lhand -14.1053 -21.9796
lfingers 7.12502
lthumb 12.0276 7.65474
rfemur 0 0 0
rtibia 0
rfoot 0 0
rtoes 0
lfemur -7.56792 -8.61557 -13.1778
ltibia 20.8274
lfoot -22.8681 15.0845
ltoes -54.968
664
root -0.691825 18.7277 5.67371 4.44184 1.50606 -0.840401
lowerback 3.70489 0.297945 0.777349
upperback 1.51265 0.436643 1.56662
thorax -0.531903 0.216861 1.15165
lowerneck -17.8972 -3.26671 -0.828674
upperneck 15.702 -4.72238 2.46313
head 7.87728 -2.04483 0.390271
rclavicle -1.28713e-014 9.93923e-015
rhumerus -92.3157 -4.56878 -101.286
rradius 85.4331
rwrist -56.0863
rhand 8.10312 -57.8496
rfingers 7.12502
rthumb 33.3251 635.219
lclavicle -1.28713e-014 9.93923e-015
lhumerus -69.6803 -17.4962 104.868
lradius 106.968
lwrist 34.309
lhand -14.1182 -22.0821
lfingers 7.12502
lthumb 12.0151 7.55301
rfemur 0 0 0
rtibia 0
rfoot 0 0
rtoes 0
lfemur -7.61635 -8.53846 -12.9885
ltibia 20.9761
lfoot -22.8646 14.9704
ltoes -54.9285
665
root -0.688943 18.7271 5.67601 4.38843 1.48617 -0.988275
lowerback 3.5959 0.251649 1.04755
upperback 1.44834 0.382928 1.53201
thorax -0.534106 0.190882 0.967117
lowerneck -17.7862 -3.16751 -0.574887
upperneck 15.7038 -4.61599 2.26896
head 7.84568 -1.99975 0.299538
rclavicle -5.76476e-015 1.51076e-014
rhumerus -92.6587 -4.49493 -101.302
rradius 85.7652
rwrist -56.0188
rhand 8.30645 -57.761
rfingers 7.12502
rthumb 33.5183 635.35
lclavicle -5.76476e-015 1.51076e-014
lhumerus -69.7539 -17.6108 104.715
lradius 106.998
lwrist 34.3785
lhand -14.0944 -22.0196
lfingers 7.12502
lthumb 12.0381 7.61421
rfemur 0 0 0
rtibia 0
rfoot 0 0
rtoes 0
lfemur -7.61105 -8.41909 -12.8324
ltibia 21.1001
lfoot -22.8912 14.8563
ltoes -54.9887
666
root -0.686744 18.7265 5.67938 4.33909 1.45076 -1.14875
lowerback 3.4547 0.210084 1.29407
upperback 1.38034 0.333707 1.5133
thorax -0.522853 0.16695 0.81207
lowerneck -17.8008 -3.10717 -0.406104
upperneck 15.8618 -4.55346 2.11741
head 7.89197 -1.97284 0.228214
rclavicle -8.44835e-016 -1.23246e-014
rhumerus -92.9345 -4.20212 -101.425
rradius 85.9591
rwrist -55.8856
rhand 8.33921 -57.7438
rfingers 7.12502
rthumb 33.5495 635.374
lclavicle -8.44835e-016 -1.23246e-014
lhumerus -69.7772 -17.6939 104.573
lradius 106.941
lwrist 34.4065
lhand -14.0275 -21.9264
lfingers 7.12502
lthumb 12.1026 7.70357
rfemur 0 0 0
rtibia 0
rfoot 0 0
rtoes 0
lfemur -7.57015 -8.40728 -12.6634
ltibia 21.1693
lfoot -22.9872 14.7881
ltoes -54.938
667
root -0.683989 18.7261 5.68328 4.30884 1.39333 -1.22278
lowerback 3.27839 0.176025 1.41887
upperback 1.31498 0.289015 1.47483
thorax -0.490211 0.145015 0.704828
lowerneck -17.8808 -3.07717 -0.353854
upperneck 16.0851 -4.53824 2.13958
head 7.97966 -1.95626 0.225979
rclavicle 3.37934e-015 -4.77083e-015
rhumerus -93.0308 -3.62752 -101.694
rradius 85.8617
rwrist -55.515
rhand 8.0697 -57.7399
rfingers 7.12502
rthumb 33.2933 635.322
lclavicle 3.37934e-015 -4.77083e-015
lhumerus -69.7529 -17.7695 104.448
lradius 106.794
lwrist 34.444
lhand -14.0031 -22.0002
lfingers 7.12502
lthumb 12.1261 7.62842
rfemur 0 0 0
rtibia 0
rfoot 0 0
rtoes 0
lfemur -7.51736 -8.40909 -12.6003
ltibia 21.1775
lfoot -23.0039 14.8162
ltoes -54.8328
668
root -0.683256 18.7255 5.68381 4.26524 1.16544 -1.11127
lowerback 3.1883 0.203977 1.27335
upperback 1.24461 0.320273 1.36998
thorax -0.512267 0.160294 0.677942
lowerneck -17.9149 -3.0372 -0.326193
upperneck 16.245 -4.52826 2.29762
head 8.04272 -1.93096 0.273403
rclavicle -3.97569e-016 -1.03368e-014
rhumerus -92.9236 -2.80369 -102.114
rradius 85.4592
rwrist -54.618
rhand 7.47512 -57.8388
rfingers 7.12502
rthumb 32.7278 635.104
lclavicle -3.97569e-016 -1.03368e-014
lhumerus -69.7041 -17.899 104.285
lradius 106.532
lwrist 34.5963
lhand -13.9684 -22.0361
lfingers 7.12502
lthumb 12.1595 7.59052
rfemur 0 0 0
rtibia 0
rfoot 0 0
rtoes 0
lfemur -7.38259 -8.38438 -12.7698
ltibia 21.1302
lfoot -23.1041 14.969
ltoes -54.7472
